<?xml version="1.0" encoding="UTF-8" standalone="no"?>
<svg width="512px" height="408px" viewBox="0 0 512 408" version="1.1" xmlns="http://www.w3.org/2000/svg" xmlns:xlink="http://www.w3.org/1999/xlink">
    <!-- Generator: Sketch 39.1 (31720) - http://www.bohemiancoding.com/sketch -->
    <title>Slice 1</title>
    <desc>Created with Sketch.</desc>
    <defs></defs>
    <g id="Page-1" stroke="none" stroke-width="1" fill="none" fill-rule="evenodd">
        <g id="speedometer">
            <g id="Layer_1">
                <path d="M256,204 C202.371,204 158.897,247.475 158.897,301.103 L353.104,301.103 C353.103,247.475 309.629,204 256,204 L256,204 Z" id="Shape" fill="#EFF2FA"></path>
                <g id="Group" fill="#D7DEED">
                    <path d="M256,265.793 C236.499,265.793 220.69,281.602 220.69,301.103 L291.311,301.103 C291.31,281.602 275.501,265.793 256,265.793 L256,265.793 Z" id="Shape"></path>
                    <path d="M485.517,0.966 L26.483,0.966 C11.857,0.966 0,12.822 0,27.448 L0,380.551 C0,395.177 11.857,407.034 26.483,407.034 L485.517,407.034 C500.143,407.034 512,395.177 512,380.551 L512,27.448 C512,12.822 500.143,0.966 485.517,0.966 L485.517,0.966 Z M494.345,380.552 C494.345,385.427 490.392,389.38 485.517,389.38 L26.483,389.38 C21.608,389.38 17.655,385.427 17.655,380.552 L17.655,62.759 C17.655,57.884 21.608,53.931 26.483,53.931 L485.517,53.931 C490.392,53.931 494.345,57.884 494.345,62.759 L494.345,380.552 L494.345,380.552 Z" id="Shape"></path>
                </g>
                <path d="M379.586,301.103 L432.552,301.103 C432.552,203.749 353.35,124.551 256,124.551 L256,177.517 C324.147,177.517 379.586,232.957 379.586,301.103 L379.586,301.103 Z" id="Shape" fill="#FFB473"></path>
                <path d="M132.414,301.103 L79.448,301.103 C79.448,203.749 158.65,124.551 256,124.551 L256,177.517 C187.853,177.517 132.414,232.957 132.414,301.103 L132.414,301.103 Z" id="Shape" fill="#FFE182"></path>
                <path d="M79.448,301.103 L132.414,301.103 C132.414,267.03 146.274,236.133 168.652,213.755 L131.218,176.321 C99.249,208.29 79.448,252.427 79.448,301.103 L79.448,301.103 Z" id="Shape" fill="#C3E678"></path>
                <g id="Group" transform="translate(229.000000, 159.000000)" fill="#FF6464">
                    <path d="M114.348,54.756 C136.726,77.134 150.586,108.03 150.586,142.104 L203.552,142.104 C203.552,93.428 183.752,49.291 151.783,17.322 L114.348,54.756 L114.348,54.756 Z" id="Shape"></path>
                    <path d="M9.345,168.586 C7.086,168.586 4.827,167.724 3.104,166 C-0.344,162.552 -0.344,156.965 3.104,153.517 L153.173,3.448 C156.621,-3.55271368e-14 162.208,-3.55271368e-14 165.656,3.448 C169.104,6.896 169.104,12.483 165.656,15.931 L15.587,166 C13.862,167.724 11.604,168.586 9.345,168.586 L9.345,168.586 Z" id="Shape"></path>
                </g>
                <circle id="Oval" fill="#5B5D6E" cx="256" cy="301.103" r="17.655"></circle>
            </g>
        </g>
    </g>
</svg>