<?xml version="1.0" encoding="UTF-8" standalone="no"?>
<svg width="282px" height="345px" viewBox="0 0 282 345" version="1.1" xmlns="http://www.w3.org/2000/svg" xmlns:xlink="http://www.w3.org/1999/xlink">
    <g id="Front" transform="translate(0.000000, 37.000000)">
        <polygon id="Shape" fill="#EFEBDE" points="238.5 74.1034483 164.5 0 0.642857143 0 0.642857143 307 238.5 307"></polygon>
        <g id="Lines" transform="translate(47.571429, 68.810345)" fill="#D5D0BB">
            <path d="M5.92857143,52.9310345 L138.071429,52.9310345 C140.989143,52.9310345 143.357143,50.5650172 143.357143,47.637931 C143.357143,44.7108448 140.989143,42.3448276 138.071429,42.3448276 L5.92857143,42.3448276 C3.01085714,42.3448276 0.642857143,44.7108448 0.642857143,47.637931 C0.642857143,50.5650172 3.01085714,52.9310345 5.92857143,52.9310345 L5.92857143,52.9310345 Z" id="Shape"></path>
            <path d="M5.92857143,10.5862069 L58.7857143,10.5862069 C61.7034286,10.5862069 64.0714286,8.22018966 64.0714286,5.29310345 C64.0714286,2.36601724 61.7034286,0 58.7857143,0 L5.92857143,0 C3.01085714,0 0.642857143,2.36601724 0.642857143,5.29310345 C0.642857143,8.22018966 3.01085714,10.5862069 5.92857143,10.5862069 L5.92857143,10.5862069 Z" id="Shape"></path>
            <path d="M138.071429,84.6896552 L5.92857143,84.6896552 C3.01085714,84.6896552 0.642857143,87.0556724 0.642857143,89.9827586 C0.642857143,92.9098448 3.01085714,95.2758621 5.92857143,95.2758621 L138.071429,95.2758621 C140.989143,95.2758621 143.357143,92.9098448 143.357143,89.9827586 C143.357143,87.0556724 140.989143,84.6896552 138.071429,84.6896552 L138.071429,84.6896552 Z" id="Shape"></path>
            <path d="M138.071429,127.034483 L5.92857143,127.034483 C3.01085714,127.034483 0.642857143,129.4005 0.642857143,132.327586 C0.642857143,135.254672 3.01085714,137.62069 5.92857143,137.62069 L138.071429,137.62069 C140.989143,137.62069 143.357143,135.254672 143.357143,132.327586 C143.357143,129.4005 140.989143,127.034483 138.071429,127.034483 L138.071429,127.034483 Z" id="Shape"></path>
            <path d="M138.071429,169.37931 L5.92857143,169.37931 C3.01085714,169.37931 0.642857143,171.745328 0.642857143,174.672414 C0.642857143,177.5995 3.01085714,179.965517 5.92857143,179.965517 L138.071429,179.965517 C140.989143,179.965517 143.357143,177.5995 143.357143,174.672414 C143.357143,171.745328 140.989143,169.37931 138.071429,169.37931 L138.071429,169.37931 Z" id="Shape"></path>
        </g>
        <polygon id="Shape" fill="#D5D0BB" points="164.5 0 164.5 74.1034483 238.5 74.1034483"></polygon>
    </g>
    <g id="Back" transform="translate(45.000000, 0.000000)" fill="#D5D0BB">
        <polygon id="Shape" points="167.634146 5.21320755 164.743902 0 0 0 0 17.3773585 150.292683 17.3773585 167.634146 35.3339623"></polygon>
        <polygon id="Shape" points="234.109756 69.509434 204.629268 69.509434 219.658537 87.4660377 219.658537 307 237 307 237 72.9849057"></polygon>
    </g>
</svg>