<?xml version="1.0" encoding="UTF-8" standalone="no"?>
<svg width="216px" height="238px" viewBox="0 0 216 238" version="1.1" xmlns="http://www.w3.org/2000/svg" xmlns:xlink="http://www.w3.org/1999/xlink">
    <!-- Generator: Sketch 39.1 (31720) - http://www.bohemiancoding.com/sketch -->
    <title>Slice 1</title>
    <desc>Created with Sketch.</desc>
    <defs></defs>
    <g id="Page-1" stroke="none" stroke-width="1" fill="none" fill-rule="evenodd">
        <g id="Group">
            <path d="M181.303187,237.714286 L34.9825275,237.714286 C15.8212912,237.714286 0.285714286,220.594286 0.285714286,199.478857 L0.285714286,38.2354286 C0.285714286,17.12 15.8212912,0 34.9825275,0 L181.303187,0 C200.464423,0 216,17.12 216,38.2354286 L216,199.478857 C216,220.594286 200.464423,237.714286 181.303187,237.714286 L181.303187,237.714286 Z" id="Shape" fill="#FFA50E"></path>
            <path d="M177.312812,63.8571429 L42.1777966,63.8571429 C38.0336561,63.8571429 34.6702958,61.1751429 34.6702958,57.8571429 C34.6702958,54.5391429 38.0336561,51.8571429 42.1777966,51.8571429 L177.312812,51.8571429 C181.456952,51.8571429 184.820312,54.5391429 184.820312,57.8571429 C184.820312,61.1751429 181.456952,63.8571429 177.312812,63.8571429 L177.312812,63.8571429 Z" id="Shape" fill="#FFFFFF"></path>
            <path d="M177.312812,127.857143 L42.1777966,127.857143 C38.0336561,127.857143 34.6702958,125.175143 34.6702958,121.857143 C34.6702958,118.539143 38.0336561,115.857143 42.1777966,115.857143 L177.312812,115.857143 C181.456952,115.857143 184.820312,118.539143 184.820312,121.857143 C184.820312,125.175143 181.456952,127.857143 177.312812,127.857143 L177.312812,127.857143 Z" id="Shape" fill="#FFFFFF"></path>
            <path d="M177.312812,191.857143 L42.1777966,191.857143 C38.0336561,191.857143 34.6702958,189.175143 34.6702958,185.857143 C34.6702958,182.539143 38.0336561,179.857143 42.1777966,179.857143 L177.312812,179.857143 C181.456952,179.857143 184.820312,182.539143 184.820312,185.857143 C184.820312,189.175143 181.456952,191.857143 177.312812,191.857143 L177.312812,191.857143 Z" id="Shape" fill="#FFFFFF"></path>
        </g>
    </g>
</svg>
