<?xml version="1.0" encoding="UTF-8" standalone="no"?>
<svg width="210px" height="210px" viewBox="0 0 210 210" version="1.1" xmlns="http://www.w3.org/2000/svg" xmlns:xlink="http://www.w3.org/1999/xlink">
    <!-- Generator: Sketch 39.1 (31720) - http://www.bohemiancoding.com/sketch -->
    <title>logo</title>
    <desc>Created with Sketch.</desc>
    <defs>
        <rect id="path-1" x="0" y="0" width="210" height="210" rx="8"></rect>
    </defs>
    <g id="Page-1" stroke="none" stroke-width="1" fill="none" fill-rule="evenodd">
        <g id="Group-2">
            <g id="Group">
                <mask id="mask-2" fill="white">
                    <use xlink:href="#path-1"></use>
                </mask>
                <use id="Mask" fill="#FCCA3F" xlink:href="#path-1"></use>
                <g id="Group-2" mask="url(#mask-2)">
                    <g transform="translate(-16.000000, -7.000000)" id="Path-2">
                        <polygon fill="#F6820C" points="0.795356858 174.064509 168.104776 0.420420321 0.795356858 0.420420321"></polygon>
                        <polygon fill="#FFA712" points="0.795356858 186.962931 99.5703736 0.420420321 0.795356858 0.420420321"></polygon>
                    </g>
                </g>
            </g>
            <path d="M93.24,172.96 L102.48,172.96 L102.48,121.12 L116.16,121.12 L116.16,113.56 L102.48,113.56 L102.48,105.52 C102.48,97.24 106.44,93.88 113.52,93.88 C117.6,93.88 120.12,94.36 121.92,94.72 L121.92,88.24 C119.76,87.16 116.52,86.2 111.84,86.2 C101.04,86.2 93.24,91.84 93.24,104.92 L93.24,113.56 L84.48,113.56 L84.48,121.12 L93.24,121.12 L93.24,172.96 Z M143.04,174.04 C151.08,174.04 156.12,171.16 158.88,167.8 L159.48,167.8 L160.44,172.96 L167.88,172.96 L167.88,129.88 C167.88,117.76 160.56,112.36 147.48,112.36 C140.64,112.36 134.88,113.44 129.72,115.6 L129.72,122.2 C133.44,121.12 138.12,120.28 143.88,120.28 C154.56,120.28 158.64,122.68 158.64,131.92 L158.64,138.16 L142.56,140.08 C131.16,141.4 124.44,146.92 124.44,157.36 C124.44,168.52 132.24,174.04 143.04,174.04 L143.04,174.04 Z M145.32,166.84 C138.48,166.84 134.04,163.6 134.04,157.12 C134.04,150.28 137.64,147.28 144.96,146.56 L158.64,145 L158.64,162.52 C156.12,165.04 150.84,166.84 145.32,166.84 L145.32,166.84 Z" id="fa" fill="#FFFFFF"></path>
        </g>
    </g>
</svg>
