<?xml version="1.0" encoding="UTF-8" standalone="no"?>
<svg width="303px" height="498px" viewBox="0 0 303 498" version="1.1" xmlns="http://www.w3.org/2000/svg" xmlns:xlink="http://www.w3.org/1999/xlink">
    <g id="side-up" transform="translate(151.000000, 248.500000) rotate(-90.000000) translate(-151.000000, -248.500000) translate(-97.500000, 97.500000)">
        <path d="M195.726,75.022 L129.253,8.549 C118.611,-2.116 101.314,-2.116 90.656,8.549 L24.19,75.022 C13.525,85.679 13.525,102.954 24.19,113.603 C34.84,124.268 52.129,124.268 62.763,113.603 L89.489,86.908 L89.489,156.745 C89.489,168.056 98.65,177.217 109.945,177.217 C121.248,177.217 130.433,168.056 130.433,156.745 L130.433,86.908 L157.128,113.603 C162.453,118.936 169.44,121.614 176.426,121.614 C183.405,121.614 190.384,118.936 195.717,113.603 C206.375,102.954 206.375,85.672 195.726,75.022 L195.726,75.022 Z" id="Shape" fill="#04A6AA"></path>
        <path d="M129.252,8.541 C118.61,-2.124 101.313,-2.124 90.655,8.541 L30.995,68.193 L69.592,106.774 L89.489,86.908 L89.489,126.655 L128.362,165.551 C129.646,162.873 130.434,159.911 130.434,156.752 L130.434,86.915 L157.129,113.61 C162.454,118.943 169.441,121.621 176.427,121.621 C183.406,121.621 190.385,118.943 195.718,113.61 C206.375,102.953 206.375,85.678 195.718,75.029 L129.252,8.541 L129.252,8.541 Z" id="Shape" fill="#15CC93"></path>
        <path d="M472.072,75.022 L405.599,8.549 C394.934,-2.116 377.636,-2.116 367.002,8.549 L300.529,75.022 C289.864,85.679 289.864,102.954 300.529,113.603 C311.171,124.268 328.476,124.268 339.11,113.603 L365.813,86.908 L365.813,156.745 C365.813,168.056 374.99,177.217 386.285,177.217 C397.604,177.217 406.765,168.056 406.765,156.745 L406.765,86.908 L433.484,113.603 C438.785,118.936 445.788,121.614 452.751,121.614 C459.754,121.614 466.74,118.936 472.065,113.603 C482.729,102.954 482.729,85.672 472.072,75.022 L472.072,75.022 Z" id="Shape" fill="#04A6AA"></path>
        <path d="M405.599,8.541 C394.934,-2.124 377.636,-2.124 367.002,8.541 L307.35,68.193 L345.939,106.774 L365.812,86.908 L365.812,126.655 L404.7,165.551 C405.984,162.873 406.764,159.911 406.764,156.752 L406.764,86.915 L433.483,113.61 C438.784,118.943 445.787,121.621 452.75,121.621 C459.753,121.621 466.739,118.943 472.064,113.61 C482.722,102.953 482.722,85.678 472.064,75.029 L405.599,8.541 L405.599,8.541 Z" id="Shape" fill="#15CC93"></path>
        <path d="M473.608,256.451 L22.638,256.451 C10.114,256.451 -5.68434189e-14,266.573 -5.68434189e-14,279.082 C-5.68434189e-14,291.575 10.114,301.705 22.638,301.705 L473.608,301.705 C486.132,301.705 496.246,291.575 496.246,279.082 C496.246,266.573 486.132,256.451 473.608,256.451 L473.608,256.451 Z" id="Shape" fill="#04A6AA"></path>
    </g>
</svg>